<svg id="visual" viewBox="0 0 900 900" width="100%" height="100%" xmlns="http://www.w3.org/2000/svg"
  xmlns:xlink="http://www.w3.org/1999/xlink" version="1.1">
  <filter id="grainy">
    <feTurbulence type="fractalNoise" baseFrequency="2.0" 
      numOctaves="3" seed="15" stitchTiles="stitch" 
      x="0%" y="0%" width="100%" height="100%" result="turbulence">
    </feTurbulence>
    <feSpecularLighting surfaceScale="9" specularConstant="0.75" specularExponent="20" 
      lighting-color="white" x="0%" y="0%" width="100%" height="100%" in="turbulence" 
      result="specularLighting">
        <feDistantLight azimuth="3" elevation="100"></feDistantLight>
    </feSpecularLighting>
    <feComposite operator="in" in2="SourceGraphic" result="monoNoise" />
  </filter>
  <path
    d="M343 0L301 37.5C259 75 175 150 145 225C115 300 139 375 180.2 450C221.3 525 279.7 600 273.7 675C267.7 750 197.3 825 162.2 862.5L127 900L0 900L0 862.5C0 825 0 750 0 675C0 600 0 525 0 450C0 375 0 300 0 225C0 150 0 75 0 37.5L0 0Z"
    fill="white" stroke-linecap="round" stroke-linejoin="miter" 
    filter="url(#grainy)">
  </path>
</svg>
