<svg id="visual" viewBox="0 0 960 540" width="960" height="540" xmlns="http://www.w3.org/2000/svg"
  xmlns:xlink="http://www.w3.org/1999/xlink" version="1.1">
  <filter id="grainy">
    <feTurbulence type="fractalNoise" baseFrequency="0.3" 
      numOctaves="3" seed="15" stitchTiles="stitch" 
      x="0%" y="0%" width="100%" height="100%" result="turbulence">
    </feTurbulence>
    <feSpecularLighting surfaceScale="9" specularConstant="0.75" specularExponent="20" 
      lighting-color="white" x="0%" y="0%" width="100%" height="100%" in="turbulence" 
      result="specularLighting">
        <feDistantLight azimuth="3" elevation="100"></feDistantLight>
    </feSpecularLighting>
    <feComposite operator="in" in2="SourceGraphic" result="monoNoise" />
  </filter>
  <path
    d="M0 149L16 164.7C32 180.3 64 211.7 96 213.7C128 215.7 160 188.3 192 178.8C224 169.3 256 177.7 288 194.7C320 211.7 352 237.3 384 227.3C416 217.3 448 171.7 480 150.7C512 129.7 544 133.3 576 157.2C608 181 640 225 672 247.8C704 270.7 736 272.3 768 266.2C800 260 832 246 864 224C896 202 928 172 944 157L960 142L960 0L944 0C928 0 896 0 864 0C832 0 800 0 768 0C736 0 704 0 672 0C640 0 608 0 576 0C544 0 512 0 480 0C448 0 416 0 384 0C352 0 320 0 288 0C256 0 224 0 192 0C160 0 128 0 96 0C64 0 32 0 16 0L0 0Z"
    fill="black" stroke-linecap="round" stroke-linejoin="miter"
    filter="url(#grainy)">
  </path>
</svg>